/* XPM */
static char * bg_meter_xpm[] = {
"60 9 109 2",
"  	g None",
". 	g #3A3A3A",
"+ 	g #4E4E4E",
"@ 	g #454545",
"# 	g #414141",
"$ 	g #424242",
"% 	g #484848",
"& 	g #4A4A4A",
"* 	g #4C4C4C",
"= 	g #4F4F4F",
"- 	g #505050",
"; 	g #535353",
"> 	g #555555",
", 	g #575757",
"' 	g #5A5A5A",
") 	g #5D5D5D",
"! 	g #5F5F5F",
"~ 	g #616161",
"{ 	g #646464",
"] 	g #656565",
"^ 	g #686868",
"/ 	g #6A6A6A",
"( 	g #6D6D6D",
"_ 	g #6F6F6F",
": 	g #727272",
"< 	g #737373",
"[ 	g #767676",
"} 	g #787878",
"| 	g #7B7B7B",
"1 	g #7D7D7D",
"2 	g #808080",
"3 	g #3E3E3E",
"4 	g #1C1C1C",
"5 	g #565656",
"6 	g #676767",
"7 	g #696969",
"8 	g #707070",
"9 	g #7C7C7C",
"0 	g #7E7E7E",
"a 	g #828282",
"b 	g #878787",
"c 	g #898989",
"d 	g #8D8D8D",
"e 	g #919191",
"f 	g #949494",
"g 	g #989898",
"h 	g #9C9C9C",
"i 	g #9F9F9F",
"j 	g #A3A3A3",
"k 	g #A7A7A7",
"l 	g #AAAAAA",
"m 	g #AEAEAE",
"n 	g #B0B0B0",
"o 	g #B1B1B1",
"p 	g #B4B4B4",
"q 	g #B6B6B6",
"r 	g #B8B8B8",
"s 	g #BABABA",
"t 	g #BCBCBC",
"u 	g #3D3D3D",
"v 	g #444444",
"w 	g #606060",
"x 	g #666666",
"y 	g #747474",
"z 	g #777777",
"A 	g #7A7A7A",
"B 	g #848484",
"C 	g #8B8B8B",
"D 	g #979797",
"E 	g #9A9A9A",
"F 	g #9E9E9E",
"G 	g #A1A1A1",
"H 	g #A4A4A4",
"I 	g #ADADAD",
"J 	g #212121",
"K 	g #525252",
"L 	g #515151",
"M 	g #545454",
"N 	g #595959",
"O 	g #626262",
"P 	g #797979",
"Q 	g #7F7F7F",
"R 	g #8A8A8A",
"S 	g #909090",
"T 	g #939393",
"U 	g #959595",
"V 	g #9B9B9B",
"W 	g #4B4B4B",
"X 	g #181818",
"Y 	g #818181",
"Z 	g #8C8C8C",
"` 	g #8F8F8F",
" .	g #929292",
"..	g #131313",
"+.	g #2B2B2B",
"@.	g #141414",
"#.	g #0D0D0D",
"$.	g #0E0E0E",
"%.	g #0F0F0F",
"&.	g #101010",
"*.	g #111111",
"=.	g #121212",
"-.	g #151515",
";.	g #161616",
">.	g #171717",
",.	g #191919",
"'.	g #1A1A1A",
").	g #0C0C0C",
"!.	g #000000",
". + @ # $ @ % & * = - ; > , ' ) ! ~ { ] ^ / ( _ : < [ } | 1 2 1 | } [ < : _ ( / ^ ] { ~ ! ) ' , > ; - = * & % @ $ # 3 4 ",
"5 6 ] ] 7 ( 8 < } 9 0 a b c d e f g h i j k l m n o p q r s t s r q p o n m l k j i h g f e d c b a 0 9 } < 8 ( 7 ] ~ u ",
"v , ' ' ) w { x / ( 8 y z A 1 2 B b C d e f D E F G H k l I n I l k H G F E D f e d C b B 2 1 A z y 8 ( / x { w ) ' 5 J ",
"u K ; + L M , N ) w O ] ^ / ( 8 < [ P | Q a B b R d S T U g V g U T S d R b B a Q | P [ < 8 ( / ^ ] O w ) N , M L + W X ",
"u K ; + L M , N ) w O ] ^ / ( 8 < [ P | Q a B b R d S T U g V g U T S d R b B a Q | P [ < 8 ( / ^ ] O w ) N , M L + W X ",
"u K ; + L M , N ) w O ] ^ / ( 8 < [ P | Q a B b R d S T U g V g U T S d R b B a Q | P [ < 8 ( / ^ ] O w ) N , M L + W X ",
"u K ; + L M , N ) w O ] ^ / ( 8 < [ P | Q a B b R d S T U g V g U T S d R b B a Q | P [ < 8 ( / ^ ] O w ) N , M L + W X ",
"u K ; + L M , N ) ! O ] ^ / ( 8 < [ P | 0 Y B b R Z `  .f D E D f  .` Z R b B Y 0 | P [ < 8 ( / ^ ] O ! ) N , M L + W X ",
"..+.@.#.#.$.$.$.%.&.&.&.*.*.=.......@.-.-.-.;.>.>.X X ,.,.'.'.'.,.,.X X >.>.;.-.-.-.@.......=.*.*.&.&.&.%.$.$.$.#.#.).!."};
