/* XPM */
static char * bg_panel_xpm[] = {
"68 9 121 2",
"  	g None",
". 	g #3A3A3A",
"+ 	g #4E4E4E",
"@ 	g #444444",
"# 	g #404040",
"$ 	g #424242",
"% 	g #464646",
"& 	g #484848",
"* 	g #4B4B4B",
"= 	g #4C4C4C",
"- 	g #4F4F4F",
"; 	g #505050",
"> 	g #535353",
", 	g #555555",
"' 	g #575757",
") 	g #5A5A5A",
"! 	g #5C5C5C",
"~ 	g #5E5E5E",
"{ 	g #5F5F5F",
"] 	g #626262",
"^ 	g #646464",
"/ 	g #666666",
"( 	g #686868",
"_ 	g #6A6A6A",
": 	g #6D6D6D",
"< 	g #6F6F6F",
"[ 	g #717171",
"} 	g #737373",
"| 	g #757575",
"1 	g #777777",
"2 	g #797979",
"3 	g #7C7C7C",
"4 	g #7E7E7E",
"5 	g #808080",
"6 	g #3D3D3D",
"7 	g #3C3C3C",
"8 	g #1B1B1B",
"9 	g #565656",
"0 	g #676767",
"a 	g #6B6B6B",
"b 	g #6E6E6E",
"c 	g #727272",
"d 	g #787878",
"e 	g #828282",
"f 	g #858585",
"g 	g #898989",
"h 	g #8C8C8C",
"i 	g #909090",
"j 	g #929292",
"k 	g #969696",
"l 	g #9A9A9A",
"m 	g #9C9C9C",
"n 	g #A0A0A0",
"o 	g #A3A3A3",
"p 	g #A7A7A7",
"q 	g #AAAAAA",
"r 	g #AEAEAE",
"s 	g #B0B0B0",
"t 	g #B1B1B1",
"u 	g #B3B3B3",
"v 	g #B5B5B5",
"w 	g #B7B7B7",
"x 	g #B9B9B9",
"y 	g #BBBBBB",
"z 	g #BCBCBC",
"A 	g #606060",
"B 	g #5D5D5D",
"C 	g #3B3B3B",
"D 	g #595959",
"E 	g #656565",
"F 	g #707070",
"G 	g #747474",
"H 	g #767676",
"I 	g #7A7A7A",
"J 	g #7F7F7F",
"K 	g #888888",
"L 	g #8B8B8B",
"M 	g #8E8E8E",
"N 	g #919191",
"O 	g #949494",
"P 	g #979797",
"Q 	g #9D9D9D",
"R 	g #9F9F9F",
"S 	g #A2A2A2",
"T 	g #A6A6A6",
"U 	g #A9A9A9",
"V 	g #ABABAB",
"W 	g #AFAFAF",
"X 	g #525252",
"Y 	g #202020",
"Z 	g #515151",
"` 	g #4D4D4D",
" .	g #585858",
"..	g #5B5B5B",
"+.	g #848484",
"@.	g #878787",
"#.	g #999999",
"$.	g #4A4A4A",
"%.	g #181818",
"&.	g #171717",
"*.	g #6C6C6C",
"=.	g #818181",
"-.	g #939393",
";.	g #959595",
">.	g #989898",
",.	g #9B9B9B",
"'.	g #131313",
").	g #2B2B2B",
"!.	g #0D0D0D",
"~.	g #0E0E0E",
"{.	g #0F0F0F",
"].	g #101010",
"^.	g #111111",
"/.	g #121212",
"(.	g #141414",
"_.	g #151515",
":.	g #161616",
"<.	g #191919",
"[.	g #1A1A1A",
"}.	g #0C0C0C",
"|.	g #000000",
". + @ # $ @ % & * = - ; > , ' ) ! ~ { ] ^ / ( _ : < [ } | 1 2 3 4 5 5 4 3 2 1 | } [ < : _ ( / ^ ] { ~ ! ) ' , > ; - = * & % @ $ # 6 7 8 ",
"9 / ^ ^ 0 a b c | d 3 4 e f g h i j k l m n o p q r s t u v w x y z z y x w v u t s r q p o n m l k j i h g f e 4 3 d | c b a 0 ^ A B C ",
"@ 9 D D ! { ] E ( _ : F G H I 3 J e f K L M N O P l Q R S T U V W s s W V U T S R Q l P O N M L K f e J 3 I H G F : _ ( E ] { ! D , X Y ",
"6 Z X ` ; > ,  ...B A ] E 0 _ : F c G 1 2 3 J e +.@.g L M N O k #.m m #.k O N M L g @.+.e J 3 2 1 G c F : _ 0 E ] A B .. ., > ; ` $.& %.",
"6 Z X ` ; > ,  ...B A ] E 0 _ : F c G 1 2 3 J e +.@.g L M N O k #.m m #.k O N M L g @.+.e J 3 2 1 G c F : _ 0 E ] A B .. ., > ; ` $.& &.",
"6 Z X ` ; > ,  ...B A ] E 0 _ : F c G 1 2 3 J e +.@.g L M N O k #.m m #.k O N M L g @.+.e J 3 2 1 G c F : _ 0 E ] A B .. ., > ; ` $.& &.",
"6 Z X ` ; > ,  ...B A ] E 0 _ : F c G 1 2 3 J e +.@.g L M N O k #.m m #.k O N M L g @.+.e J 3 2 1 G c F : _ 0 E ] A B .. ., > ; ` $.& &.",
"6 Z X ` ; > ,  ...B { ] E 0 _ *.< [ G 1 2 3 4 =.+.@.g L M i -.;.>.,.,.>.;.-.i M L g @.+.=.4 3 2 1 G [ < *._ 0 E ] { B .. ., > ; ` $.& &.",
"'.).'.!.!.!.~.~.{.{.].].].^.^./.'.'.'.(.(._._._.:.&.&.%.%.%.<.<.[.[.[.[.<.<.%.%.%.&.&.:._._._.(.(.'.'.'./.^.^.].].].{.{.~.~.!.!.!.}.}.|."};
