/* XPM */
static char * frame_bottom_xpm[] = {
"68 2 5 1",
" 	g None",
".	g #9E9E9E",
"+	g #818181",
"@	g #646464",
"#	g #464646",
"@@@@@@@@@@@@@@@@@@@@@@@@@@@@@@@@@@@@@@@@@@@@@@@@@@@@@@@@@@@@@@@@@@@@",
"####################################################################"};
